<svg width="20" height="28" viewBox="0 0 20 28" fill="none" xmlns="http://www.w3.org/2000/svg">
<path d="M1.9 22.7998C1.3775 22.7998 0.930208 22.6138 0.558125 22.2417C0.186042 21.8696 0 21.4223 0 20.8998V9.4998C0 8.9773 0.186042 8.53001 0.558125 8.15793C0.930208 7.78585 1.3775 7.5998 1.9 7.5998H3.8V7.5998C3.8 6.5548 4.17208 5.66022 4.91625 4.91605C5.66042 4.17189 6.555 3.7998 7.6 3.7998C8.645 3.7998 9.53958 4.17189 10.2837 4.91605C11.0279 5.66022 11.4 6.5548 11.4 7.5998V7.5998H13.3C13.8225 7.5998 14.2698 7.78585 14.6419 8.15793C15.014 8.53001 15.2 8.9773 15.2 9.4998V20.8998C15.2 21.4223 15.014 21.8696 14.6419 22.2417C14.2698 22.6138 13.8225 22.7998 13.3 22.7998H1.9V22.7998M1.9 20.8998H13.3V20.8998V20.8998V9.4998V9.4998V9.4998H11.4V11.3998C11.4 11.669 11.309 11.8946 11.1269 12.0767C10.9448 12.2588 10.7192 12.3498 10.45 12.3498C10.1808 12.3498 9.95521 12.2588 9.77313 12.0767C9.59104 11.8946 9.5 11.669 9.5 11.3998V9.4998H5.7V11.3998C5.7 11.669 5.60896 11.8946 5.42688 12.0767C5.24479 12.2588 5.01917 12.3498 4.75 12.3498C4.48083 12.3498 4.25521 12.2588 4.07312 12.0767C3.89104 11.8946 3.8 11.669 3.8 11.3998V9.4998H1.9V9.4998V9.4998V20.8998V20.8998V20.8998V20.8998M5.7 7.5998H9.5V7.5998C9.5 7.0773 9.31396 6.63001 8.94188 6.25793C8.56979 5.88585 8.1225 5.6998 7.6 5.6998C7.0775 5.6998 6.63021 5.88585 6.25813 6.25793C5.88604 6.63001 5.7 7.0773 5.7 7.5998V7.5998V7.5998M1.9 20.8998V20.8998V20.8998V20.8998V9.4998V9.4998V9.4998V9.4998V9.4998V9.4998V20.8998V20.8998V20.8998V20.8998" fill="#0A0A0A"/>
<rect x="3.82031" width="15.2" height="15.2" rx="8" fill="#40683F"/>
<path d="M8.91325 10.9246V10.0316L10.2337 8.86311C10.7151 8.45144 11.1299 8.09519 11.4782 7.79436C11.8266 7.49353 12.0957 7.21011 12.2857 6.94411C12.4757 6.67811 12.5707 6.38678 12.5707 6.07011C12.5707 5.82944 12.5122 5.62361 12.395 5.45261C12.2778 5.28161 12.1274 5.15178 11.9437 5.06311C11.7601 4.97444 11.5701 4.93011 11.3737 4.93011C11.1014 4.93011 10.8813 4.98394 10.7135 5.09161C10.5457 5.19928 10.419 5.32911 10.3335 5.48111C10.248 5.63311 10.1894 5.78036 10.1577 5.92286C10.1261 6.06536 10.1102 6.17144 10.1102 6.24111H8.87525C8.87525 6.10178 8.899 5.92919 8.9465 5.72336C8.994 5.51753 9.07475 5.30378 9.18875 5.08211C9.30275 4.86044 9.45475 4.65144 9.64475 4.45511C9.83475 4.25878 10.0754 4.10044 10.3667 3.98011C10.6581 3.85978 11.0032 3.79961 11.4023 3.79961C11.8456 3.79961 12.2525 3.88828 12.623 4.06561C12.9935 4.24294 13.2912 4.49628 13.516 4.82561C13.7408 5.15494 13.8533 5.55078 13.8533 6.01311C13.8533 6.43744 13.7472 6.82378 13.535 7.17211C13.3228 7.52044 13.0331 7.86086 12.6657 8.19336C12.2984 8.52586 11.8804 8.88211 11.4117 9.26211L10.8227 9.79411H13.9767V10.9246H8.91325Z" fill="#EAFFE3"/>
</svg>
