<svg width="16" height="24" viewBox="0 0 16 24" fill="none" xmlns="http://www.w3.org/2000/svg">
<path d="M1.9 21.5C1.3775 21.5 0.930208 21.314 0.558125 20.9419C0.186042 20.5698 0 20.1225 0 19.6V8.2C0 7.6775 0.186042 7.23021 0.558125 6.85813C0.930208 6.48604 1.3775 6.3 1.9 6.3H3.8V6.3C3.8 5.255 4.17208 4.36042 4.91625 3.61625C5.66042 2.87208 6.555 2.5 7.6 2.5C8.645 2.5 9.53958 2.87208 10.2837 3.61625C11.0279 4.36042 11.4 5.255 11.4 6.3V6.3H13.3C13.8225 6.3 14.2698 6.48604 14.6419 6.85813C15.014 7.23021 15.2 7.6775 15.2 8.2V19.6C15.2 20.1225 15.014 20.5698 14.6419 20.9419C14.2698 21.314 13.8225 21.5 13.3 21.5H1.9V21.5M1.9 19.6H13.3V19.6V19.6V8.2V8.2V8.2H11.4V10.1C11.4 10.3692 11.309 10.5948 11.1269 10.7769C10.9448 10.959 10.7192 11.05 10.45 11.05C10.1808 11.05 9.95521 10.959 9.77313 10.7769C9.59104 10.5948 9.5 10.3692 9.5 10.1V8.2H5.7V10.1C5.7 10.3692 5.60896 10.5948 5.42688 10.7769C5.24479 10.959 5.01917 11.05 4.75 11.05C4.48083 11.05 4.25521 10.959 4.07312 10.7769C3.89104 10.5948 3.8 10.3692 3.8 10.1V8.2H1.9V8.2V8.2V19.6V19.6V19.6V19.6M5.7 6.3H9.5V6.3C9.5 5.7775 9.31396 5.33021 8.94188 4.95813C8.56979 4.58604 8.1225 4.4 7.6 4.4C7.0775 4.4 6.63021 4.58604 6.25813 4.95813C5.88604 5.33021 5.7 5.7775 5.7 6.3V6.3V6.3M1.9 19.6V19.6V19.6V19.6V8.2V8.2V8.2V8.2V8.2V8.2V19.6V19.6V19.6V19.6" fill="#0A0A0A"/>
</svg>
