<svg width="16" height="26" viewBox="0 0 16 26" fill="none" xmlns="http://www.w3.org/2000/svg">
<mask id="path-1-inside-1_304_1000" fill="white">
<path d="M0 2.5498H15.2V23.4498H0V2.5498Z"/>
</mask>
<path d="M15.2 23.4498V21.5498H0V23.4498V25.3498H15.2V23.4498Z" fill="#A8D5A2" mask="url(#path-1-inside-1_304_1000)"/>
<path d="M1.9 21.5498C1.3775 21.5498 0.930208 21.3638 0.558125 20.9917C0.186042 20.6196 0 20.1723 0 19.6498V8.2498C0 7.7273 0.186042 7.28001 0.558125 6.90793C0.930208 6.53585 1.3775 6.3498 1.9 6.3498H3.8V6.3498C3.8 5.3048 4.17208 4.41022 4.91625 3.66605C5.66042 2.92189 6.555 2.5498 7.6 2.5498C8.645 2.5498 9.53958 2.92189 10.2837 3.66605C11.0279 4.41022 11.4 5.3048 11.4 6.3498V6.3498H13.3C13.8225 6.3498 14.2698 6.53585 14.6419 6.90793C15.014 7.28001 15.2 7.7273 15.2 8.2498V19.6498C15.2 20.1723 15.014 20.6196 14.6419 20.9917C14.2698 21.3638 13.8225 21.5498 13.3 21.5498H1.9V21.5498M5.7 6.3498H9.5V6.3498C9.5 5.8273 9.31396 5.38001 8.94188 5.00793C8.56979 4.63585 8.1225 4.4498 7.6 4.4498C7.0775 4.4498 6.63021 4.63585 6.25813 5.00793C5.88604 5.38001 5.7 5.8273 5.7 6.3498V6.3498V6.3498M10.45 11.0998C10.7192 11.0998 10.9448 11.0088 11.1269 10.8267C11.309 10.6446 11.4 10.419 11.4 10.1498V8.2498H9.5V10.1498C9.5 10.419 9.59104 10.6446 9.77313 10.8267C9.95521 11.0088 10.1808 11.0998 10.45 11.0998V11.0998M4.75 11.0998C5.01917 11.0998 5.24479 11.0088 5.42688 10.8267C5.60896 10.6446 5.7 10.419 5.7 10.1498V8.2498H3.8V10.1498C3.8 10.419 3.89104 10.6446 4.07312 10.8267C4.25521 11.0088 4.48083 11.0998 4.75 11.0998V11.0998" fill="#A8D5A2"/>
</svg>
