<svg width="19" height="24" viewBox="0 0 19 24" fill="none" xmlns="http://www.w3.org/2000/svg">
<path d="M9.5 20.7167L8.1225 19.4817C6.52333 18.0408 5.20125 16.7979 4.15625 15.7529C3.11125 14.7079 2.28 13.7698 1.6625 12.9386C1.045 12.1073 0.613542 11.3433 0.368125 10.6467C0.122708 9.95001 0 9.23751 0 8.50918C0 7.02085 0.49875 5.77793 1.49625 4.78043C2.49375 3.78293 3.73667 3.28418 5.225 3.28418C6.04833 3.28418 6.83208 3.45835 7.57625 3.80668C8.32042 4.15501 8.96167 4.64585 9.5 5.27918C10.0383 4.64585 10.6796 4.15501 11.4237 3.80668C12.1679 3.45835 12.9517 3.28418 13.775 3.28418C15.2633 3.28418 16.5062 3.78293 17.5037 4.78043C18.5012 5.77793 19 7.02085 19 8.50918C19 9.23751 18.8773 9.95001 18.6319 10.6467C18.3865 11.3433 17.955 12.1073 17.3375 12.9386C16.72 13.7698 15.8887 14.7079 14.8437 15.7529C13.7987 16.7979 12.4767 18.0408 10.8775 19.4817L9.5 20.7167V20.7167M9.5 18.1517C11.02 16.79 12.2708 15.6223 13.2525 14.6486C14.2342 13.6748 15.01 12.8277 15.58 12.1073C16.15 11.3869 16.5458 10.7456 16.7675 10.1836C16.9892 9.62147 17.1 9.06335 17.1 8.50918C17.1 7.55918 16.7833 6.76751 16.15 6.13418C15.5167 5.50085 14.725 5.18418 13.775 5.18418C13.0308 5.18418 12.3421 5.39397 11.7087 5.81355C11.0754 6.23314 10.64 6.76751 10.4025 7.41668V7.41668H8.5975V7.41668C8.36 6.76751 7.92458 6.23314 7.29125 5.81355C6.65792 5.39397 5.96917 5.18418 5.225 5.18418C4.275 5.18418 3.48333 5.50085 2.85 6.13418C2.21667 6.76751 1.9 7.55918 1.9 8.50918C1.9 9.06335 2.01083 9.62147 2.2325 10.1836C2.45417 10.7456 2.85 11.3869 3.42 12.1073C3.99 12.8277 4.76583 13.6748 5.7475 14.6486C6.72917 15.6223 7.98 16.79 9.5 18.1517V18.1517M9.5 11.6679V11.6679V11.6679V11.6679V11.6679V11.6679V11.6679V11.6679V11.6679V11.6679V11.6679V11.6679V11.6679V11.6679V11.6679V11.6679V11.6679V11.6679V11.6679V11.6679V11.6679" fill="#0A0A0A"/>
</svg>
