<svg width="51" height="32" viewBox="0 0 51 32" fill="none" xmlns="http://www.w3.org/2000/svg">
<path d="M1.68 25V7.72H4.27996L10.264 19.9561L16.236 7.72H18.844V24.996H16.136V13.9239L10.836 25H9.68799L4.38796 13.9239V25H1.68ZM26.728 25.36C25.7667 25.36 24.8597 25.2173 24.007 24.932C23.1543 24.6467 22.4427 24.196 21.872 23.58C21.4173 23.0747 21.0843 22.5253 20.873 21.932C20.6617 21.3387 20.544 20.7013 20.52 20.02C20.5187 19.352 20.6157 18.7077 20.811 18.087C21.0063 17.4663 21.3093 16.9147 21.72 16.432C21.88 16.24 22.0537 16.0703 22.241 15.923C22.4283 15.7757 22.6173 15.64 22.808 15.516C22.3347 14.988 21.9777 14.476 21.737 13.98C21.4963 13.484 21.376 12.9027 21.376 12.236C21.376 11.2267 21.647 10.321 22.189 9.519C22.731 8.717 23.4707 8.14267 24.408 7.796C24.816 7.64134 25.2297 7.53667 25.649 7.482C26.0683 7.42733 26.4773 7.4 26.876 7.4C27.632 7.4 28.358 7.51366 29.054 7.74099C29.75 7.96833 30.3426 8.33732 30.832 8.84798C31.14 9.14665 31.3983 9.48231 31.607 9.85498C31.8156 10.2276 31.972 10.6066 32.076 10.992L29.22 11.604C29.1054 11.244 28.9093 10.9373 28.632 10.684C28.388 10.4506 28.1027 10.2963 27.776 10.221C27.4493 10.1456 27.128 10.108 26.812 10.108C26.3 10.108 25.8453 10.2013 25.448 10.388C25.0586 10.5733 24.7693 10.821 24.58 11.131C24.3906 11.441 24.296 11.82 24.296 12.268C24.296 12.6667 24.37 12.9863 24.518 13.227C24.666 13.4677 24.8506 13.712 25.072 13.96C25.2173 14.116 25.3936 14.2903 25.601 14.483C25.8083 14.6757 26.024 14.876 26.248 15.084L30.584 19.1081C30.592 18.9507 30.5974 18.7764 30.6 18.585C30.6027 18.3937 30.604 18.2147 30.604 18.048L30.6 15.94H33.14V19.068C33.14 19.5027 33.1283 19.9217 33.105 20.325C33.0816 20.7284 33.036 21.0614 32.968 21.324L35.108 23.296L33.252 25.28L31.588 23.696C31.1787 24.076 30.7303 24.387 30.243 24.629C29.7557 24.871 29.264 25.044 28.768 25.148C28.4067 25.232 28.061 25.2883 27.731 25.317C27.401 25.3457 27.0667 25.36 26.728 25.36ZM26.84 22.612C27.092 22.612 27.3273 22.599 27.546 22.573C27.7647 22.547 27.9787 22.5 28.188 22.432C28.4854 22.34 28.7397 22.235 28.951 22.117C29.1624 21.999 29.3467 21.876 29.504 21.748L24.932 17.548C24.7227 17.628 24.532 17.7293 24.36 17.852C24.188 17.9746 24.04 18.112 23.916 18.264C23.7613 18.468 23.643 18.7043 23.561 18.973C23.479 19.2417 23.4386 19.536 23.44 19.856C23.4426 20.2227 23.5013 20.5474 23.616 20.83C23.7306 21.1127 23.8773 21.368 24.056 21.596C24.348 21.9574 24.7623 22.217 25.299 22.375C25.8356 22.533 26.3493 22.612 26.84 22.612ZM35.844 25V7.72H38.772L46.784 19.9001V7.72H49.712V25H46.784L38.772 12.8159V25H35.844Z" fill="#0A0A0A"/>
</svg>
