<svg width="258" height="43" viewBox="0 0 258 43" fill="none" xmlns="http://www.w3.org/2000/svg">
<rect x="2" y="7" width="256" height="4" rx="2" fill="#EAE7E7"/>
<rect x="2" y="7" width="192" height="4" rx="2" fill="#40683F"/>
<g filter="url(#filter0_d_304_596)">
<rect x="2" y="1" width="16" height="16" rx="8" fill="white"/>
<rect x="3" y="2" width="14" height="14" rx="7" stroke="#40683F" stroke-width="2"/>
</g>
<g filter="url(#filter1_d_304_596)">
<rect x="178" y="1" width="16" height="16" rx="8" fill="white"/>
<rect x="179" y="2" width="14" height="14" rx="7" stroke="#40683F" stroke-width="2"/>
</g>
<path d="M5.54 40.176V39.108C4.94 39.06 4.45 38.932 4.07 38.724C3.69 38.516 3.394 38.27 3.182 37.986C2.97 37.702 2.818 37.424 2.726 37.152C2.634 36.88 2.578 36.654 2.558 36.474C2.538 36.294 2.528 36.204 2.528 36.204H4.1C4.1 36.204 4.11 36.274 4.13 36.414C4.15 36.554 4.204 36.718 4.292 36.906C4.38 37.094 4.522 37.272 4.718 37.44C4.914 37.608 5.188 37.724 5.54 37.788V35.088L5.468 35.064C5.012 34.968 4.578 34.83 4.166 34.65C3.754 34.47 3.42 34.216 3.164 33.888C2.908 33.56 2.78 33.124 2.78 32.58C2.78 32.076 2.906 31.64 3.158 31.272C3.41 30.904 3.744 30.614 4.16 30.402C4.576 30.19 5.036 30.06 5.54 30.012V28.968H6.488V30.036C7.008 30.092 7.436 30.218 7.772 30.414C8.108 30.61 8.372 30.834 8.564 31.086C8.756 31.338 8.898 31.582 8.99 31.818C9.082 32.054 9.14 32.252 9.164 32.412C9.188 32.572 9.2 32.652 9.2 32.652H7.652C7.652 32.652 7.642 32.598 7.622 32.49C7.602 32.382 7.556 32.252 7.484 32.1C7.412 31.948 7.296 31.8 7.136 31.656C6.976 31.512 6.76 31.404 6.488 31.332V33.864L6.62 33.9C6.916 33.964 7.22 34.046 7.532 34.146C7.844 34.246 8.134 34.388 8.402 34.572C8.67 34.756 8.888 34.998 9.056 35.298C9.224 35.598 9.308 35.976 9.308 36.432C9.308 36.92 9.19 37.354 8.954 37.734C8.718 38.114 8.388 38.424 7.964 38.664C7.54 38.904 7.048 39.052 6.488 39.108V40.176H5.54ZM4.304 32.532C4.304 32.82 4.404 33.05 4.604 33.222C4.804 33.394 5.116 33.536 5.54 33.648V31.284C5.156 31.348 4.854 31.494 4.634 31.722C4.414 31.95 4.304 32.22 4.304 32.532ZM7.772 36.456C7.772 36.128 7.66 35.878 7.436 35.706C7.212 35.534 6.896 35.396 6.488 35.292V37.788C6.864 37.716 7.172 37.562 7.412 37.326C7.652 37.09 7.772 36.8 7.772 36.456ZM14.084 39.108C13.508 39.108 12.994 38.988 12.542 38.748C12.09 38.508 11.712 38.178 11.408 37.758C11.104 37.338 10.872 36.854 10.712 36.306C10.552 35.758 10.472 35.172 10.472 34.548C10.472 33.932 10.552 33.348 10.712 32.796C10.872 32.244 11.104 31.758 11.408 31.338C11.712 30.918 12.09 30.588 12.542 30.348C12.994 30.108 13.508 29.988 14.084 29.988C14.66 29.988 15.174 30.108 15.626 30.348C16.078 30.588 16.456 30.918 16.76 31.338C17.064 31.758 17.296 32.244 17.456 32.796C17.616 33.348 17.696 33.932 17.696 34.548C17.696 35.172 17.616 35.758 17.456 36.306C17.296 36.854 17.064 37.338 16.76 37.758C16.456 38.178 16.078 38.508 15.626 38.748C15.174 38.988 14.66 39.108 14.084 39.108ZM14.084 37.656C14.644 37.656 15.106 37.396 15.47 36.876C15.834 36.356 16.016 35.58 16.016 34.548C16.016 33.524 15.834 32.754 15.47 32.238C15.106 31.722 14.644 31.464 14.084 31.464C13.524 31.464 13.062 31.722 12.698 32.238C12.334 32.754 12.152 33.524 12.152 34.548C12.152 35.572 12.334 36.346 12.698 36.87C13.062 37.394 13.524 37.656 14.084 37.656Z" fill="#5F5E5E"/>
<path d="M221.411 40.176V39.108C220.811 39.06 220.321 38.932 219.941 38.724C219.561 38.516 219.265 38.27 219.053 37.986C218.841 37.702 218.689 37.424 218.597 37.152C218.505 36.88 218.449 36.654 218.429 36.474C218.409 36.294 218.399 36.204 218.399 36.204H219.971C219.971 36.204 219.981 36.274 220.001 36.414C220.021 36.554 220.075 36.718 220.163 36.906C220.251 37.094 220.393 37.272 220.589 37.44C220.785 37.608 221.059 37.724 221.411 37.788V35.088L221.339 35.064C220.883 34.968 220.449 34.83 220.037 34.65C219.625 34.47 219.291 34.216 219.035 33.888C218.779 33.56 218.651 33.124 218.651 32.58C218.651 32.076 218.777 31.64 219.029 31.272C219.281 30.904 219.615 30.614 220.031 30.402C220.447 30.19 220.907 30.06 221.411 30.012V28.968H222.359V30.036C222.879 30.092 223.307 30.218 223.643 30.414C223.979 30.61 224.243 30.834 224.435 31.086C224.627 31.338 224.769 31.582 224.861 31.818C224.953 32.054 225.011 32.252 225.035 32.412C225.059 32.572 225.071 32.652 225.071 32.652H223.523C223.523 32.652 223.513 32.598 223.493 32.49C223.473 32.382 223.427 32.252 223.355 32.1C223.283 31.948 223.167 31.8 223.007 31.656C222.847 31.512 222.631 31.404 222.359 31.332V33.864L222.491 33.9C222.787 33.964 223.091 34.046 223.403 34.146C223.715 34.246 224.005 34.388 224.273 34.572C224.541 34.756 224.759 34.998 224.927 35.298C225.095 35.598 225.179 35.976 225.179 36.432C225.179 36.92 225.061 37.354 224.825 37.734C224.589 38.114 224.259 38.424 223.835 38.664C223.411 38.904 222.919 39.052 222.359 39.108V40.176H221.411ZM220.175 32.532C220.175 32.82 220.275 33.05 220.475 33.222C220.675 33.394 220.987 33.536 221.411 33.648V31.284C221.027 31.348 220.725 31.494 220.505 31.722C220.285 31.95 220.175 32.22 220.175 32.532ZM223.643 36.456C223.643 36.128 223.531 35.878 223.307 35.706C223.083 35.534 222.767 35.396 222.359 35.292V37.788C222.735 37.716 223.043 37.562 223.283 37.326C223.523 37.09 223.643 36.8 223.643 36.456ZM229.679 39.12C229.151 39.12 228.699 39.048 228.323 38.904C227.947 38.76 227.635 38.572 227.387 38.34C227.139 38.108 226.943 37.864 226.799 37.608C226.655 37.352 226.553 37.108 226.493 36.876C226.433 36.644 226.399 36.456 226.391 36.312H227.915C227.915 36.312 227.923 36.362 227.939 36.462C227.955 36.562 227.993 36.684 228.053 36.828C228.113 36.972 228.205 37.118 228.329 37.266C228.453 37.414 228.623 37.536 228.839 37.632C229.055 37.728 229.327 37.776 229.655 37.776C230.055 37.776 230.385 37.692 230.645 37.524C230.905 37.356 231.099 37.14 231.227 36.876C231.355 36.612 231.419 36.332 231.419 36.036C231.419 35.74 231.355 35.458 231.227 35.19C231.099 34.922 230.907 34.7 230.651 34.524C230.395 34.348 230.075 34.26 229.691 34.26C229.395 34.26 229.149 34.308 228.953 34.404C228.757 34.5 228.603 34.608 228.491 34.728C228.379 34.848 228.299 34.956 228.251 35.052C228.203 35.148 228.179 35.196 228.179 35.196H226.571L227.327 30.12H232.403V31.548H228.455L228.131 33.744H228.179C228.235 33.68 228.331 33.588 228.467 33.468C228.603 33.348 228.795 33.24 229.043 33.144C229.291 33.048 229.615 33 230.015 33C230.663 33 231.209 33.144 231.653 33.432C232.097 33.72 232.435 34.094 232.667 34.554C232.899 35.014 233.015 35.5 233.015 36.012C233.015 36.396 232.945 36.772 232.805 37.14C232.665 37.508 232.457 37.842 232.181 38.142C231.905 38.442 231.559 38.68 231.143 38.856C230.727 39.032 230.239 39.12 229.679 39.12ZM237.887 39.108C237.311 39.108 236.797 38.988 236.345 38.748C235.893 38.508 235.515 38.178 235.211 37.758C234.907 37.338 234.675 36.854 234.515 36.306C234.355 35.758 234.275 35.172 234.275 34.548C234.275 33.932 234.355 33.348 234.515 32.796C234.675 32.244 234.907 31.758 235.211 31.338C235.515 30.918 235.893 30.588 236.345 30.348C236.797 30.108 237.311 29.988 237.887 29.988C238.463 29.988 238.977 30.108 239.429 30.348C239.881 30.588 240.259 30.918 240.563 31.338C240.867 31.758 241.099 32.244 241.259 32.796C241.419 33.348 241.499 33.932 241.499 34.548C241.499 35.172 241.419 35.758 241.259 36.306C241.099 36.854 240.867 37.338 240.563 37.758C240.259 38.178 239.881 38.508 239.429 38.748C238.977 38.988 238.463 39.108 237.887 39.108ZM237.887 37.656C238.447 37.656 238.909 37.396 239.273 36.876C239.637 36.356 239.819 35.58 239.819 34.548C239.819 33.524 239.637 32.754 239.273 32.238C238.909 31.722 238.447 31.464 237.887 31.464C237.327 31.464 236.865 31.722 236.501 32.238C236.137 32.754 235.955 33.524 235.955 34.548C235.955 35.572 236.137 36.346 236.501 36.87C236.865 37.394 237.327 37.656 237.887 37.656ZM246.191 39.108C245.615 39.108 245.101 38.988 244.649 38.748C244.197 38.508 243.819 38.178 243.515 37.758C243.211 37.338 242.979 36.854 242.819 36.306C242.659 35.758 242.579 35.172 242.579 34.548C242.579 33.932 242.659 33.348 242.819 32.796C242.979 32.244 243.211 31.758 243.515 31.338C243.819 30.918 244.197 30.588 244.649 30.348C245.101 30.108 245.615 29.988 246.191 29.988C246.767 29.988 247.281 30.108 247.733 30.348C248.185 30.588 248.563 30.918 248.867 31.338C249.171 31.758 249.403 32.244 249.563 32.796C249.723 33.348 249.803 33.932 249.803 34.548C249.803 35.172 249.723 35.758 249.563 36.306C249.403 36.854 249.171 37.338 248.867 37.758C248.563 38.178 248.185 38.508 247.733 38.748C247.281 38.988 246.767 39.108 246.191 39.108ZM246.191 37.656C246.751 37.656 247.213 37.396 247.577 36.876C247.941 36.356 248.123 35.58 248.123 34.548C248.123 33.524 247.941 32.754 247.577 32.238C247.213 31.722 246.751 31.464 246.191 31.464C245.631 31.464 245.169 31.722 244.805 32.238C244.441 32.754 244.259 33.524 244.259 34.548C244.259 35.572 244.441 36.346 244.805 36.87C245.169 37.394 245.631 37.656 246.191 37.656ZM251.747 35.892V34.608H253.523V32.832H254.807V34.608H256.583V35.892H254.807V37.668H253.523V35.892H251.747Z" fill="#5F5E5E"/>
<defs>
<filter id="filter0_d_304_596" x="0" y="0" width="20" height="20" filterUnits="userSpaceOnUse" color-interpolation-filters="sRGB">
<feFlood flood-opacity="0" result="BackgroundImageFix"/>
<feColorMatrix in="SourceAlpha" type="matrix" values="0 0 0 0 0 0 0 0 0 0 0 0 0 0 0 0 0 0 127 0" result="hardAlpha"/>
<feOffset dy="1"/>
<feGaussianBlur stdDeviation="1"/>
<feComposite in2="hardAlpha" operator="out"/>
<feColorMatrix type="matrix" values="0 0 0 0 0 0 0 0 0 0 0 0 0 0 0 0 0 0 0.05 0"/>
<feBlend mode="normal" in2="BackgroundImageFix" result="effect1_dropShadow_304_596"/>
<feBlend mode="normal" in="SourceGraphic" in2="effect1_dropShadow_304_596" result="shape"/>
</filter>
<filter id="filter1_d_304_596" x="176" y="0" width="20" height="20" filterUnits="userSpaceOnUse" color-interpolation-filters="sRGB">
<feFlood flood-opacity="0" result="BackgroundImageFix"/>
<feColorMatrix in="SourceAlpha" type="matrix" values="0 0 0 0 0 0 0 0 0 0 0 0 0 0 0 0 0 0 127 0" result="hardAlpha"/>
<feOffset dy="1"/>
<feGaussianBlur stdDeviation="1"/>
<feComposite in2="hardAlpha" operator="out"/>
<feColorMatrix type="matrix" values="0 0 0 0 0 0 0 0 0 0 0 0 0 0 0 0 0 0 0.05 0"/>
<feBlend mode="normal" in2="BackgroundImageFix" result="effect1_dropShadow_304_596"/>
<feBlend mode="normal" in="SourceGraphic" in2="effect1_dropShadow_304_596" result="shape"/>
</filter>
</defs>
</svg>
