<svg width="100" height="19" viewBox="0 0 100 19" fill="none" xmlns="http://www.w3.org/2000/svg">
<path d="M3.825 19L5.45 11.975L0 7.25L7.2 6.625L10 0L12.8 6.625L20 7.25L14.55 11.975L16.175 19L10 15.275L3.825 19Z" fill="#40683F"/>
<path d="M23.825 19L25.45 11.975L20 7.25L27.2 6.625L30 0L32.8 6.625L40 7.25L34.55 11.975L36.175 19L30 15.275L23.825 19Z" fill="#40683F"/>
<path d="M43.825 19L45.45 11.975L40 7.25L47.2 6.625L50 0L52.8 6.625L60 7.25L54.55 11.975L56.175 19L50 15.275L43.825 19Z" fill="#40683F"/>
<path d="M63.825 19L65.45 11.975L60 7.25L67.2 6.625L70 0L72.8 6.625L80 7.25L74.55 11.975L76.175 19L70 15.275L63.825 19Z" fill="#40683F"/>
<path d="M93.15 14.85L92.325 11.25L95.1 8.85L91.45 8.525L90 5.125V12.925L93.15 14.85ZM83.825 19L85.45 11.975L80 7.25L87.2 6.625L90 0L92.8 6.625L100 7.25L94.55 11.975L96.175 19L90 15.275L83.825 19Z" fill="#40683F"/>
</svg>
