<svg width="11" height="10" viewBox="0 0 11 10" fill="none" xmlns="http://www.w3.org/2000/svg">
<path d="M3.56921 9.86534L2.67691 8.3615L0.982687 7.99035L1.14807 6.24612L0 4.93267L1.14807 3.61921L0.982687 1.87499L2.67691 1.50384L3.56921 0L5.16344 0.67692L6.75766 0L7.64996 1.50384L9.34419 1.87499L9.1788 3.61921L10.3269 4.93267L9.1788 6.24612L9.34419 7.99035L7.64996 8.3615L6.75766 9.86534L5.16344 9.18842L3.56921 9.86534ZM3.88844 8.90767L5.16344 8.36728L6.45382 8.90767L7.16344 7.70767L8.53844 7.39229L8.41344 5.98267L9.33844 4.93267L8.41344 3.86729L8.53844 2.45767L7.16344 2.15767L6.43844 0.957669L5.16344 1.49805L3.87305 0.957669L3.16344 2.15767L1.78844 2.45767L1.91344 3.86729L0.988437 4.93267L1.91344 5.98267L1.78844 7.40767L3.16344 7.70767L3.88844 8.90767ZM4.63844 6.53458L7.29035 3.88267L6.76344 3.34037L4.63844 5.46537L3.56344 4.40576L3.03653 4.93267L4.63844 6.53458Z" fill="#40683F"/>
</svg>
