<svg width="22" height="16" viewBox="0 0 22 16" fill="none" xmlns="http://www.w3.org/2000/svg">
<path d="M4.4977 15.0576C3.71716 15.0576 3.05446 14.7847 2.50959 14.2387C1.96472 13.6928 1.69229 13.0299 1.69229 12.2499H0V1.80768C0 1.30255 0.174998 0.874992 0.524995 0.524995C0.874992 0.174998 1.30255 0 1.80768 0H15.423V3.80768H18.0769L21.3076 8.13463V12.2499H19.5C19.5 13.0299 19.2268 13.6928 18.6804 14.2387C18.134 14.7847 17.4706 15.0576 16.69 15.0576C15.9095 15.0576 15.2468 14.7847 14.7019 14.2387C14.157 13.6928 13.8846 13.0299 13.8846 12.2499H7.30764C7.30764 13.032 7.03445 13.6955 6.48808 14.2403C5.9417 14.7852 5.27824 15.0576 4.4977 15.0576ZM4.49996 13.5577C4.86664 13.5577 5.17626 13.4314 5.42883 13.1788C5.68139 12.9262 5.80768 12.6166 5.80768 12.2499C5.80768 11.8833 5.68139 11.5737 5.42883 11.3211C5.17626 11.0685 4.86664 10.9422 4.49996 10.9422C4.13329 10.9422 3.82367 11.0685 3.5711 11.3211C3.31853 11.5737 3.19225 11.8833 3.19225 12.2499C3.19225 12.6166 3.31853 12.9262 3.5711 13.1788C3.82367 13.4314 4.13329 13.5577 4.49996 13.5577ZM1.49996 10.75H2.22303C2.43585 10.3795 2.74322 10.0689 3.14515 9.81824C3.54707 9.56759 3.99868 9.44227 4.49996 9.44227C4.98843 9.44227 5.43683 9.56599 5.84516 9.81343C6.2535 10.0609 6.56408 10.3731 6.77689 10.75H13.9231V1.49996H1.80768C1.73075 1.49996 1.66023 1.53202 1.59612 1.59612C1.53202 1.66023 1.49996 1.73075 1.49996 1.80768V10.75ZM16.6923 13.5577C17.059 13.5577 17.3686 13.4314 17.6211 13.1788C17.8737 12.9262 18 12.6166 18 12.2499C18 11.8833 17.8737 11.5737 17.6211 11.3211C17.3686 11.0685 17.059 10.9422 16.6923 10.9422C16.3256 10.9422 16.016 11.0685 15.7634 11.3211C15.5109 11.5737 15.3846 11.8833 15.3846 12.2499C15.3846 12.6166 15.5109 12.9262 15.7634 13.1788C16.016 13.4314 16.3256 13.5577 16.6923 13.5577ZM15.423 8.74998H19.9038L17.3076 5.30764H15.423V8.74998Z" fill="#40683F"/>
</svg>
