<svg width="17" height="16" viewBox="0 0 17 16" fill="none" xmlns="http://www.w3.org/2000/svg">
<path d="M2.24614 13.7303C1.54102 13.022 0.990379 12.2075 0.594228 11.2868C0.198076 10.3662 0 9.41433 0 8.43127C0 7.44538 0.188781 6.46718 0.566344 5.49667C0.943906 4.52616 1.55384 3.61975 2.39614 2.77745C3.00512 2.16847 3.76762 1.66687 4.68365 1.27264C5.59968 0.878412 6.63718 0.578094 7.79616 0.371686C8.95513 0.165278 10.2183 0.0450878 11.5856 0.0111146C12.9529 -0.0228586 14.3871 0.0210506 15.8884 0.142842C15.9961 1.57615 16.0329 2.96876 15.999 4.32068C15.965 5.67259 15.8467 6.93316 15.6442 8.10239C15.4416 9.27162 15.1458 10.3245 14.7567 11.261C14.3676 12.1976 13.8666 12.9723 13.2538 13.5851C12.4281 14.4171 11.5451 15.0245 10.6048 15.4072C9.66438 15.7899 8.71195 15.9812 7.74746 15.9812C6.73631 15.9812 5.74292 15.7832 4.76729 15.387C3.79165 14.9909 2.95127 14.4386 2.24614 13.7303ZM4.48841 13.5659C4.99097 13.8813 5.52207 14.1127 6.08169 14.2601C6.64131 14.4076 7.1974 14.4813 7.74996 14.4813C8.52097 14.4813 9.28359 14.3287 10.0378 14.0236C10.7921 13.7184 11.5077 13.221 12.1846 12.5313C12.4834 12.2313 12.7863 11.8104 13.0934 11.2688C13.4005 10.7271 13.6661 10.0188 13.8902 9.14377C14.1143 8.26877 14.2845 7.21044 14.4007 5.96877C14.5169 4.7271 14.5397 3.24794 14.4692 1.53127C13.6525 1.49794 12.7285 1.48864 11.6971 1.50339C10.6657 1.51813 9.63682 1.6021 8.61054 1.75531C7.58426 1.90852 6.61438 2.14858 5.70092 2.4755C4.78746 2.80242 4.04868 3.24794 3.48458 3.81204C2.74099 4.55563 2.22432 5.30851 1.93458 6.07069C1.64484 6.83288 1.49996 7.55563 1.49996 8.23897C1.49996 9.18384 1.68426 10.0383 2.05285 10.8024C2.42144 11.5665 2.80509 12.1338 3.20382 12.5044C3.76278 11.248 4.54835 10.0425 5.56052 8.88803C6.57269 7.73355 7.85506 6.72618 9.40762 5.86591C8.23327 6.89027 7.2275 8.01527 6.39032 9.2409C5.55315 10.4665 4.91918 11.9082 4.48841 13.5659Z" fill="#40683F"/>
</svg>
